<svg id="visual" viewBox="0 0 900 600" width="900" height="600" xmlns="http://www.w3.org/2000/svg" xmlns:xlink="http://www.w3.org/1999/xlink" version="1.1"><rect x="0" y="0" width="900" height="600" fill="#000000"></rect><g transform="translate(451.0788708179535 314.6778968184051)"><path d="M105.2 -178.8C148 -157.6 202.1 -152.8 218.5 -125.7C234.9 -98.7 213.4 -49.3 211.1 -1.3C208.8 46.7 225.7 93.3 210.4 122.3C195.2 151.4 147.8 162.7 107.4 173.9C67 185 33.5 196 -8.2 210.3C-50 224.6 -100 242.2 -128.6 224.2C-157.2 206.2 -164.3 152.6 -181.3 109.3C-198.3 66 -225.2 33 -226.7 -0.9C-228.3 -34.8 -204.7 -69.7 -187.2 -112.2C-169.8 -154.8 -158.7 -205.2 -128.5 -233.6C-98.3 -262 -49.2 -268.5 -9 -253C31.3 -237.5 62.5 -199.9 105.2 -178.8" fill="#FCAF3C"></path></g></svg>